<svg width="25" height="24" viewBox="0 0 25 24" fill="none" xmlns="http://www.w3.org/2000/svg">
<path d="M16.7884 7.45498C16.9997 7.25381 17.2809 7.1426 17.5726 7.14481C17.8643 7.14702 18.1438 7.26247 18.352 7.46681C18.5603 7.67115 18.681 7.9484 18.6887 8.24004C18.6964 8.53169 18.5905 8.81492 18.3934 9.02998L12.4084 16.515C12.3055 16.6258 12.1812 16.7148 12.0432 16.7765C11.9051 16.8383 11.756 16.8715 11.6047 16.8743C11.4535 16.8771 11.3033 16.8494 11.163 16.7928C11.0227 16.7362 10.8953 16.6519 10.7884 16.545L6.81937 12.576C6.70884 12.473 6.62018 12.3488 6.55869 12.2108C6.49721 12.0728 6.46414 11.9238 6.46148 11.7728C6.45881 11.6217 6.4866 11.4717 6.54318 11.3316C6.59976 11.1915 6.68398 11.0643 6.79081 10.9574C6.89764 10.8506 7.02489 10.7664 7.16497 10.7098C7.30505 10.6532 7.4551 10.6254 7.60615 10.6281C7.7572 10.6308 7.90617 10.6638 8.04417 10.7253C8.18217 10.7868 8.30637 10.8754 8.40937 10.986L11.5504 14.1255L16.7599 7.48798C16.7692 7.47643 16.7793 7.46541 16.7899 7.45498H16.7884Z" fill="#AE489B"/>
</svg>
